<svg xmlns="http://www.w3.org/2000/svg" xmlns:svg="http://www.w3.org/2000/svg" xmlns:xlink="http://www.w3.org/1999/xlink" id="svg3042" width="41" height="20" version="1.1"><defs id="defs3044"><linearGradient id="linearGradient3839" x1="3.9" x2="26.65" y1="13.558" y2="13.558" gradientUnits="userSpaceOnUse" xlink:href="#linearGradient3795"/><linearGradient id="linearGradient3795"><stop id="stop3797" offset="0" stop-color="#5a5a66" stop-opacity="1"/><stop id="stop3799" offset="1" stop-color="#cbcbd1" stop-opacity="1"/></linearGradient></defs><metadata id="metadata3047"/><g id="layer1" transform="translate(0,-1032.3622)"><path id="rect2996" fill="#6f6e63" fill-opacity="1" fill-rule="nonzero" stroke="none" stroke-width=".749" d="m 12.19754,1048.3622 0,-12 20.80255,0 c 0.0133,0 0.0262,-10e-5 0.0394,0 3.29529,0.022 5.96051,2.6997 5.96051,6 0,3.3004 -2.66517,5.9785 -5.96051,6 l -0.0394,0 -20.80255,0 z" color="#000" display="inline" enable-background="accumulate" overflow="visible" visibility="visible" style="marker:none"/><path id="path3823" fill="url(#linearGradient3839)" fill-opacity="1" stroke="#5a5a66" stroke-dasharray="none" stroke-miterlimit="4" stroke-opacity="1" stroke-width=".572" d="m 26.65,13.558333 c 0,6.282239 -5.092761,11.375 -11.375,11.375 -6.2822394,0 -11.3750004,-5.092761 -11.3750004,-11.375 0,-6.2822386 5.092761,-11.3749996 11.3750004,-11.3749996 6.282239,0 11.375,5.092761 11.375,11.3749996 z" transform="matrix(0,-0.85754591,0.85754747,0,-1.62691,1055.4612)"/></g></svg>